<?xml version="1.0" encoding="utf-8"?>
<!-- Generator: Adobe Illustrator 25.4.1, SVG Export Plug-In . SVG Version: 6.00 Build 0)  -->
<svg version="1.1" id="_x30_" xmlns="http://www.w3.org/2000/svg" xmlns:xlink="http://www.w3.org/1999/xlink" x="0px" y="0px"
	 viewBox="0 0 425.2 566.93" style="enable-background:new 0 0 425.2 566.93;" xml:space="preserve">
<style type="text/css">
	.st0{fill:none;stroke:#000000;stroke-linecap:round;stroke-linejoin:round;stroke-miterlimit:10;}
</style>
<g id="LINE_00000163778519524941924730000011177978378222953397_">
	<path class="st0" d="M266.46,231.73l-5.67-3.54v-4.25v-4.25l5.67-3.54l-5.67,3.54v4.25v4.25L266.46,231.73v22.96l-5.67,3.54v4.25
		v4.25l5.67,3.54v22.96l-5.67,3.54v4.25v4.25l5.67,3.54v22.96l-5.67,3.54v4.25v4.25l5.67,3.54v49.46
		c0,12.52-11.57,22.68-24.09,22.68l-189.92,0c-12.52,0-24.09-10.15-24.09-22.68l0-49.46l5.67-3.54v-4.25v-4.25l-5.67-3.54l0-22.96
		l5.67-3.54v-4.25v-4.25l-5.67-3.54l0-22.96l5.67-3.54v-4.25v-4.25l-5.67-3.54l0-22.96l5.67-3.54v-4.25v-4.25l-5.67-3.54l0-22.96
		l5.67-3.54v-4.25v-4.25l-5.67-3.54l0-22.96l5.67-3.54v-4.25v-4.25l-5.67-3.54l0-22.96l5.67-3.54v-4.25v-4.25l-5.67-3.54l0-49.46
		c0-12.52,11.57-22.68,24.09-22.68l189.92,0c12.52,0,24.09,10.15,24.09,22.68v49.46l-5.67,3.54v4.25v4.25l5.67,3.54v22.96
		l-5.67,3.54v4.25v4.25l5.67,3.54v-0.14v23.1l-5.67,3.54v4.25v4.25l5.67,3.54v22.96"/>
</g>
<rect x="48.9" y="121.18" class="st0" width="26.93" height="12.76"/>
<rect x="133.94" y="121.18" class="st0" width="26.93" height="12.76"/>
<rect x="218.98" y="121.18" class="st0" width="26.93" height="12.76"/>
<rect x="48.9" y="313.94" class="st0" width="26.93" height="12.76"/>
<rect x="133.94" y="313.94" class="st0" width="26.93" height="12.76"/>
<rect x="218.98" y="313.94" class="st0" width="26.93" height="12.76"/>
<rect x="48.9" y="159.73" class="st0" width="26.93" height="12.76"/>
<rect x="133.94" y="159.73" class="st0" width="26.93" height="12.76"/>
<rect x="218.98" y="159.73" class="st0" width="26.93" height="12.76"/>
<rect x="48.9" y="275.39" class="st0" width="26.93" height="12.76"/>
<rect x="133.94" y="275.39" class="st0" width="26.93" height="12.76"/>
<rect x="218.98" y="275.39" class="st0" width="26.93" height="12.76"/>
<rect x="48.9" y="198.28" class="st0" width="26.93" height="12.76"/>
<rect x="133.94" y="198.28" class="st0" width="26.93" height="12.76"/>
<rect x="218.98" y="198.28" class="st0" width="26.93" height="12.76"/>
<rect x="48.9" y="236.83" class="st0" width="26.93" height="12.76"/>
<rect x="133.94" y="236.83" class="st0" width="26.93" height="12.76"/>
<rect x="218.98" y="236.83" class="st0" width="26.93" height="12.76"/>
<rect x="48.9" y="82.63" class="st0" width="26.93" height="12.76"/>
<rect x="133.94" y="82.63" class="st0" width="26.93" height="12.76"/>
<rect x="218.98" y="82.63" class="st0" width="26.93" height="12.76"/>
<rect x="48.9" y="352.49" class="st0" width="26.93" height="12.76"/>
<rect x="133.94" y="352.49" class="st0" width="26.93" height="12.76"/>
<rect x="218.98" y="352.49" class="st0" width="26.93" height="12.76"/>
</svg>
