<?xml version="1.0" encoding="utf-8"?>
<!-- Generator: Adobe Illustrator 25.4.1, SVG Export Plug-In . SVG Version: 6.00 Build 0)  -->
<svg version="1.1" id="_x30_" xmlns="http://www.w3.org/2000/svg" xmlns:xlink="http://www.w3.org/1999/xlink" x="0px" y="0px"
	 viewBox="0 0 425.2 425.2" style="enable-background:new 0 0 425.2 425.2;" xml:space="preserve">
<style type="text/css">
	.st0{fill:none;stroke:#000000;stroke-linecap:round;stroke-linejoin:round;stroke-miterlimit:10;}
</style>
<path class="st0" d="M175.75,34.02c0-3.13-2.54-5.67-5.67-5.67l-17.01,0c-3.13,0-5.67,2.54-5.67,5.67c0-3.13-2.54-5.67-5.67-5.67
	l-17.01,0c-3.13,0-5.67,2.54-5.67,5.67c0-3.13-2.54-5.67-5.67-5.67l-17.01,0c-3.13,0-5.67,2.54-5.67,5.67
	c0-3.13-2.54-5.67-5.67-5.67l-17.01,0c-3.13,0-5.67,2.54-5.67,5.67c0-3.13-2.54-5.67-5.67-5.67l-28.35,0l0,43.94l19.84,0l0,14.17
	l28.35,0l0-14.17l56.69,0v14.17l28.35,0V72.28l56.69,0v14.17l28.35,0V72.28l19.84,0V28.35c0,0-28.35,0-28.35,0
	c-3.13,0-5.67,2.54-5.67,5.67c0-3.13-2.54-5.67-5.67-5.67l-17.01,0c-3.13,0-5.67,2.54-5.67,5.67c0-3.13-2.54-5.67-5.67-5.67
	l-17.01,0C178.29,28.35,175.75,30.88,175.75,34.02z"/>
<path class="st0" d="M232.44,34.02c0,2.7,1.89,4.95,4.41,5.52l-2.73,24.24c-0.16,0.63-0.72,1.07-1.38,1.07h-0.62
	c-0.65,0-1.22-0.44-1.38-1.07l-2.73-24.24C230.55,38.97,232.44,36.71,232.44,34.02"/>
<path class="st0" d="M62.36,34.02c0,2.7,1.89,4.95,4.41,5.52l-2.73,24.24c-0.16,0.63-0.72,1.07-1.38,1.07h-0.62
	c-0.65,0-1.22-0.44-1.38-1.07l-2.73-24.24C60.48,38.97,62.36,36.71,62.36,34.02"/>
<path class="st0" d="M90.71,34.02c0,2.7,1.89,4.95,4.41,5.52l-2.73,24.24c-0.16,0.63-0.72,1.07-1.38,1.07H90.4
	c-0.65,0-1.22-0.44-1.38-1.07L86.3,39.54C88.82,38.97,90.71,36.71,90.71,34.02"/>
<path class="st0" d="M119.06,34.02c0,2.7,1.89,4.95,4.41,5.52l-2.73,24.24c-0.16,0.63-0.72,1.07-1.38,1.07h-0.62
	c-0.65,0-1.22-0.44-1.38-1.07l-2.73-24.24C117.17,38.97,119.06,36.71,119.06,34.02"/>
<path class="st0" d="M147.4,34.02c0,2.7,1.89,4.95,4.41,5.52l-2.73,24.24c-0.16,0.63-0.72,1.07-1.38,1.07h-0.62
	c-0.65,0-1.22-0.44-1.38-1.07l-2.73-24.24C145.52,38.97,147.4,36.71,147.4,34.02"/>
<path class="st0" d="M175.75,34.02c0,2.7,1.89,4.95,4.41,5.52l-2.73,24.24c-0.16,0.63-0.72,1.07-1.38,1.07h-0.62
	c-0.65,0-1.22-0.44-1.38-1.07l-2.73-24.24C173.86,38.97,175.75,36.71,175.75,34.02"/>
<path class="st0" d="M204.09,34.02c0,2.7,1.89,4.95,4.41,5.52l-2.73,24.24c-0.16,0.63-0.72,1.07-1.38,1.07h-0.62
	c-0.65,0-1.22-0.44-1.38-1.07l-2.73-24.24C202.21,38.97,204.09,36.71,204.09,34.02"/>
</svg>
